# xmcd
#
# Track frame offsets: 
#        150
#        14472
#        46627
#        58715
#        84742
#        97327
#        110552
#        129327
#        140292
#        172712
#        187330
#        211432
#        225800
#        242547
#        261667
#
# Disc length: 3641 seconds
#
# Revision: 1
# Processed by: cddbd v1.5.2PL0 Copyright (c) Steve Scherf et al.
# Submitted via: ExactAudioCopy v0.99pb4
#
DISCID=cd0e370f
DTITLE=The New Columbian Brass Band, Foreman - The Teddy Bears Picnic 
DTITLE=(Dorian DOR-93201)
DYEAR=2000
DGENRE=Wind Ensemble
TTITLE0=The Teddy Bearas Picnic  (Characteristic Novelty, 1907, John W
TTITLE0=Bratton)
TTITLE1=A Morning in Noah's Ark  (Humorous Fantasy in Four Scenes, ca 
TTITLE1=1900, Thomas H Rollinson)
TTITLE2=The Two Little Bulfinches  (Cornet Duo, 1908, Henri King)
TTITLE3=The Magpie and the Parrot  (Humoreque, 1906, Theodore Bendix)
TTITLE4=The Whistler and His Dog  (Caprice, 1905, Arthur Pryor)
TTITLE5=Chicken Reel  (1910, Joseph M Daly)
TTITLE6=Elephantine Polka  (Tuba Solo, 1903, L.P. Laurendeau)
TTITLE7=In Bugdom  (An Insect Episode, 1908, Paul Eno)
TTITLE8=The Glow-Worm  (Idyl, 1902, Paul Lincke)
TTITLE9=Porcupine Rag  (Two-Step, 1910, Charles L Johnson)
TTITLE10=Turkey in the Straw  (Humoresque for Clarinet, 1908, Herman B
TTITLE10=ellstedt, Jr)
TTITLE11=Parade of the Doodle-Bugs  (March Characteristic, 1909, Fred 
TTITLE11=L Moreland)
TTITLE12=Somewhere a Cow is Bawling  (Trombone Symfunny, 1921, Jim Fis
TTITLE12=k)
TTITLE13=Kitten on the Keys  (Xylophone Solo, 1921, Zez Confrey)
TTITLE14=Tiger Rag  (1918, Original Dixieland Jazz Band)
EXTD=
EXTT0=
EXTT1=
EXTT2=
EXTT3=
EXTT4=
EXTT5=
EXTT6=
EXTT7=
EXTT8=
EXTT9=
EXTT10=
EXTT11=
EXTT12=
EXTT13=
EXTT14=
PLAYORDER=
